<?xml version="1.0" ?><svg viewBox="0 0 512 512" xmlns="http://www.w3.org/2000/svg"><g id="Loading"><path d="M123.6609,331.4291a153.35,153.35,0,0,0,26.7739,34.3228l10.4719-12.1251a137.25,137.25,0,0,1-22.6837-28.9792Z"/><path d="M166.5319,379.2426a152.2664,152.2664,0,0,0,33.0918,18.3l4.8685-15.2946a136.2788,136.2788,0,0,1-27.4716-15.1494Z"/><path d="M185.2913,139.4447l-7.2788-14.2809A153.5472,153.5472,0,0,0,130.6153,169.55l13.847,8.099A137.44,137.44,0,0,1,185.2913,139.4447Z"/><path d="M224.4845,388.6756,219.62,403.9579a151.8317,151.8317,0,0,0,30.1683,4.264l-.721-16.038A135.8523,135.8523,0,0,1,224.4845,388.6756Z"/><path d="M408.3589,256c0-84.0112-68.3477-152.3589-152.3589-152.3589a151.5233,151.5233,0,0,0-59.27,12.0015l7.29,14.303A135.609,135.609,0,0,1,256,119.6411c75.1885,0,136.3589,61.17,136.3589,136.3589,0,64.8567-45.5156,119.2794-106.2813,133.0121L295.01,375.085a8,8,0,1,0-13.4678-8.6377l-19.711,30.7319a8,8,0,0,0,2.8785,11.3286l31.9907,17.5943a8,8,0,0,0,7.7109-14.02L290.461,404.41C357.9269,388.75,408.3589,328.1614,408.3589,256Z"/><path d="M119.9807,265.5508H103.9492a151.27,151.27,0,0,0,10.5681,46.9709l14.5242-6.7639A135.3741,135.3741,0,0,1,119.9807,265.5508Z"/><path d="M133.7245,195.6968l-13.8405-8.0951A151.21,151.21,0,0,0,104.07,244.5508h16.0563A135.3082,135.3082,0,0,1,133.7245,195.6968Z"/><path d="M341.895,254.356a7.9993,7.9993,0,0,0-4.229-7.0552L219.5239,184.1543a8,8,0,0,0-11.771,7.0557V317.5015a8,8,0,0,0,11.771,7.0556L337.666,261.4116A8,8,0,0,0,341.895,254.356Z"/></g></svg>